<?xml version="1.0" encoding="UTF-8"?>
<svg width="20px" height="20px" viewBox="0 0 20 20" version="1.1" xmlns="http://www.w3.org/2000/svg" xmlns:xlink="http://www.w3.org/1999/xlink">
    <title>eyedropper</title>
    <g id="eyedropper" stroke="none" stroke-width="1" fill="none" fill-rule="evenodd">
        <g transform="translate(2.000000, 2.000000)" fill-rule="nonzero" id="Path">
            <path d="M13.3542782,0.35404455 C13.1278794,0.127368571 12.8206504,0 12.5002782,0 C12.1799059,0 11.8726769,0.127368571 11.6462782,0.35404455 L8.50027817,3.50104455 L7.85427817,2.85404455 C7.65876937,2.65853575 7.34178697,2.65853575 7.14627817,2.85404455 C6.95076937,3.04955335 6.95076937,3.36653575 7.14627817,3.56204455 L8.29327817,4.70804455 L1.14627817,11.8540445 C1.05256422,11.9479953 1.00004118,12.0753457 1.00027817,12.2080445 L1.00027817,14.0010445 L0.146278173,14.8540445 C-0.0489544857,15.0495534 -0.048730628,15.3663119 0.146778173,15.5615445 C0.342286975,15.7567772 0.659045514,15.7565534 0.854278173,15.5610445 L1.70727817,14.7080445 L3.50027817,14.7080445 C3.63297704,14.7082815 3.76032744,14.6557585 3.85427817,14.5620445 L11.0002782,7.41504455 L12.1462782,8.56204455 C12.341787,8.75755335 12.6587694,8.75755335 12.8542782,8.56204455 C13.049787,8.36653575 13.049787,8.04955335 12.8542782,7.85404455 L12.2072782,7.20804455 L15.3542782,4.06204455 C15.5809542,3.83564582 15.7083227,3.5284168 15.7083227,3.20804455 C15.7083227,2.88767229 15.5809542,2.58044327 15.3542782,2.35404455 L13.3542782,0.35404455 Z" fill="#000000"></path>
            <polygon fill="#FFFFFF" points="2.00027817 12.4150445 9.00027817 5.41504455 10.2932782 6.70804455 3.29327817 13.7080445 2.00027817 13.7080445"></polygon>
        </g>
    </g>
</svg>