<?xml version="1.0" encoding="UTF-8"?>
<svg width="20px" height="20px" viewBox="0 0 20 20" version="1.1" xmlns="http://www.w3.org/2000/svg" xmlns:xlink="http://www.w3.org/1999/xlink">
    <title>paintBucket</title>
    <g id="paintBucket" stroke="none" stroke-width="1" fill="none" fill-rule="evenodd">
        <g id="Group-3" transform="translate(1.014719, 2.000000)">
            <path d="M9.98528137,3 L14.5492327,5.28197564 C15.4463964,5.73055752 16.0600113,6.5978392 16.1844255,7.59315301 L16.7992293,12.5115832 C16.8899384,13.2372566 16.3751982,13.8990654 15.6495249,13.9897746 C15.595042,13.9965849 15.5401883,14 15.4852814,14 C14.7667903,14 14.1843383,13.4175479 14.1843383,12.6990569 C14.1843383,12.6374977 14.1887076,12.5760162 14.1974134,12.5150758 L14.9852814,7 L14.9852814,7 L9.98528137,7 L9.98528137,3 Z" id="Rectangle" fill="#000000"></path>
            <path d="M11.7781746,2.79289322 L11.7781746,13.2928932 C11.7781746,13.7071068 11.6102814,14.0821068 11.3388348,14.3535534 C11.0673882,14.625 10.6923882,14.7928932 10.2781746,14.7928932 L5.27817459,14.7928932 C4.86396103,14.7928932 4.48896103,14.625 4.21751442,14.3535534 C3.94606781,14.0821068 3.77817459,13.7071068 3.77817459,13.2928932 L3.77817459,2.79289322 L11.7781746,2.79289322 Z" id="Rectangle-Copy-13" stroke="#000000" fill="#FFFFFF" transform="translate(7.778175, 8.792893) rotate(-315.000000) translate(-7.778175, -8.792893) "></path>
            <path d="M5.48528137,5.5 L5.48528137,2 C5.48528137,0.816532679 6.09768088,0 6.98528137,0 C7.87288187,0 8.48528137,0.816532679 8.48528137,2 L8.48528137,7.5" id="Path-Copy" stroke="#000000" stroke-linecap="round"></path>
        </g>
    </g>
</svg>